<svg width="12" height="12" viewBox="0 0 12 12" fill="none" xmlns="http://www.w3.org/2000/svg">
<mask id="mask0_29_57" style="mask-type:alpha" maskUnits="userSpaceOnUse" x="0" y="0" width="12" height="12">
<rect width="12" height="12" fill="#D9D9D9"/>
</mask>
<g mask="url(#mask0_29_57)">
<path d="M6 10.5L5.275 9.85C4.43333 9.09166 3.7375 8.4375 3.1875 7.8875C2.6375 7.3375 2.2 6.84375 1.875 6.40625C1.55 5.96875 1.32292 5.56666 1.19375 5.2C1.06458 4.83333 1 4.45833 1 4.075C1 3.29166 1.2625 2.6375 1.7875 2.1125C2.3125 1.5875 2.96667 1.325 3.75 1.325C4.18333 1.325 4.59583 1.41666 4.9875 1.6C5.37917 1.78333 5.71667 2.04166 6 2.375C6.28333 2.04166 6.62083 1.78333 7.0125 1.6C7.40417 1.41666 7.81667 1.325 8.25 1.325C9.03333 1.325 9.6875 1.5875 10.2125 2.1125C10.7375 2.6375 11 3.29166 11 4.075C11 4.45833 10.9354 4.83333 10.8063 5.2C10.6771 5.56666 10.45 5.96875 10.125 6.40625C9.8 6.84375 9.3625 7.3375 8.8125 7.8875C8.2625 8.4375 7.56667 9.09166 6.725 9.85L6 10.5ZM6 9.15C6.8 8.43333 7.45833 7.81875 7.975 7.30625C8.49167 6.79375 8.9 6.34791 9.2 5.96875C9.5 5.58958 9.70833 5.25208 9.825 4.95625C9.94167 4.66041 10 4.36666 10 4.075C10 3.575 9.83333 3.15833 9.5 2.825C9.16667 2.49166 8.75 2.325 8.25 2.325C7.85833 2.325 7.49583 2.43541 7.1625 2.65625C6.82917 2.87708 6.6 3.15833 6.475 3.5H5.525C5.4 3.15833 5.17083 2.87708 4.8375 2.65625C4.50417 2.43541 4.14167 2.325 3.75 2.325C3.25 2.325 2.83333 2.49166 2.5 2.825C2.16667 3.15833 2 3.575 2 4.075C2 4.36666 2.05833 4.66041 2.175 4.95625C2.29167 5.25208 2.5 5.58958 2.8 5.96875C3.1 6.34791 3.50833 6.79375 4.025 7.30625C4.54167 7.81875 5.2 8.43333 6 9.15Z" fill="#5382F6"/>
</g>
<path d="M5.76946 5.16223C5.6679 5.22083 5.57076 5.28192 5.47542 5.34451C5.462 5.35333 5.41522 5.38408 5.39675 5.39681C5.39087 5.40087 5.37336 5.40965 5.382 5.41043C5.40837 5.4128 5.45632 5.34001 5.46166 5.33244C5.493 5.28797 5.51233 5.26272 5.49116 5.21608C5.44161 5.10693 5.35223 5.00393 5.14992 4.9945C4.92782 4.98415 4.7875 5.14762 4.73984 5.26312C4.72232 5.3056 4.72629 5.33467 4.78852 5.35968C4.84567 5.38264 4.93401 5.40801 5.00438 5.40362C5.07113 5.39946 5.07136 5.34205 5.07174 5.3114C5.07261 5.24089 5.04943 5.14641 4.95521 5.0991C4.88053 5.0616 4.77325 5.094 4.71575 5.13067C4.62744 5.18699 4.60182 5.27108 4.61545 5.34699C4.63072 5.43208 4.67419 5.54223 4.77623 5.60416C4.85859 5.65414 4.9271 5.59907 4.94685 5.54752C5.03504 5.31737 4.85733 4.92309 4.40598 4.9193C4.27448 4.91819 3.89654 4.93366 3.8838 5.05237C3.86819 5.19781 4.22946 5.23901 4.32584 5.11396C4.41601 4.99695 4.37942 4.82182 4.29584 4.70824C4.22035 4.60564 4.07064 4.54343 3.89904 4.51977C3.70618 4.49318 3.49214 4.52187 3.42308 4.64975C3.41882 4.65763 3.36512 4.81908 3.45455 4.77725C3.53471 4.73975 3.5588 4.64278 3.57551 4.58724C3.59283 4.52964 3.64473 4.38121 3.51601 4.3542C3.42378 4.33485 3.20894 4.37364 3.19346 4.44674C3.18064 4.50723 3.13471 4.57329 3.09168 4.62747C3.07324 4.65068 3.0616 4.66625 3.05185 4.69184C3.04679 4.70511 3.0323 4.71582 3.02775 4.72897C3.02322 4.74209 3.02685 4.75394 3.01694 4.76642C2.94887 4.8521 3.10464 4.94931 3.15461 5.02297C3.17772 5.05703 3.21395 5.08677 3.23623 5.12015C3.27287 5.175 3.30268 5.23118 3.34637 5.28416C3.45544 5.41641 3.66431 5.51643 3.83217 5.61777C3.89631 5.6565 3.96187 5.69267 4.03033 5.72826C4.09629 5.76256 4.02945 5.71567 4.01262 5.69978C3.90203 5.59537 3.80895 5.48163 3.7181 5.3702C3.66483 5.30486 3.60089 5.22326 3.55387 5.15542C3.52364 5.11181 3.4739 5.05154 3.48012 5.00069C3.48659 4.94771 3.77407 4.55605 3.85823 4.60271C3.87937 4.61443 3.89495 4.63979 3.90445 4.65377C3.93865 4.70412 3.96511 4.75638 3.99837 4.80696C4.03018 4.85536 4.0816 4.92106 4.1739 4.93168C4.29529 4.94564 4.37228 4.87031 4.39664 4.80696C4.44246 4.68783 4.44595 4.51753 4.34747 4.40712C4.28815 4.34062 4.12303 4.34606 4.09179 4.42569C4.06328 4.49836 4.27064 4.52114 4.34452 4.52348C4.40442 4.52539 4.40882 4.47296 4.41237 4.44612C4.42044 4.38517 4.40774 4.31034 4.31994 4.27281C4.19122 4.21779 3.99165 4.25805 3.88527 4.31985C3.85573 4.33702 3.8479 4.35919 3.81054 4.37308C3.79514 4.37881 3.77668 4.37957 3.76137 4.38546C3.75213 4.38901 3.74268 4.40898 3.74268 4.40217C3.74268 4.35624 3.78931 4.28757 3.84889 4.26229C3.97089 4.21053 4.15822 4.21654 4.29732 4.21989C4.52203 4.22531 4.7489 4.24873 4.96947 4.2756C5.06604 4.28736 5.14667 4.31169 5.18581 4.37153C5.21465 4.41562 5.30791 4.44887 5.31661 4.49811C5.31873 4.51016 5.20562 4.48073 5.19909 4.47954C5.11427 4.46408 5.01739 4.45298 4.93111 4.47087C4.83697 4.4904 4.72487 4.58079 4.82737 4.63428C4.9847 4.71637 5.24608 4.71192 5.38003 4.61137C5.39503 4.60012 5.44929 4.54507 5.39626 4.53617C5.35418 4.52911 5.31599 4.59453 5.30628 4.61076C5.28247 4.65055 5.26106 4.71219 5.29202 4.75249C5.37062 4.85481 5.64726 4.83226 5.78224 4.81253C6.00887 4.77941 6.29048 4.70701 6.40817 4.57083C6.44438 4.52895 6.51019 4.36066 6.3595 4.36194C6.25131 4.36286 6.16868 4.45165 6.12348 4.50182C6.06091 4.57128 5.94139 4.69893 5.99171 4.7822C6.0172 4.82439 6.06557 4.83313 6.13577 4.82553C6.32596 4.80492 6.48587 4.69824 6.60436 4.61137C6.68758 4.55037 6.77343 4.46847 6.83644 4.39784C6.85375 4.37845 6.97999 4.2513 6.95986 4.21835C6.94573 4.19522 6.89513 4.24719 6.8684 4.26539C6.76143 4.33822 6.66475 4.41757 6.59256 4.50615C6.48368 4.63976 6.38428 4.80893 6.66091 4.88619C6.92744 4.96062 7.28014 4.92184 7.44516 4.76116C7.5059 4.70202 7.52647 4.62498 7.52531 4.55598C7.52464 4.51597 7.51956 4.4554 7.45991 4.42879C7.42606 4.41368 7.37004 4.41489 7.33306 4.41888C7.21707 4.43142 7.09984 4.46555 6.99329 4.49501C6.94781 4.50759 6.8264 4.539 6.78432 4.56681C6.7726 4.57456 6.75554 4.5896 6.7676 4.59714C6.81595 4.62734 7.02099 4.59062 7.02919 4.58909C7.17574 4.56174 7.34801 4.51075 7.4786 4.46035C7.52069 4.44411 7.56051 4.42522 7.59661 4.40403C7.62985 4.38451 7.64427 4.36515 7.58972 4.37123C7.49287 4.38202 7.34581 4.44423 7.31241 4.50492C7.28415 4.55623 7.30373 4.65064 7.39255 4.67605C7.43115 4.6871 7.45917 4.68217 7.48843 4.66182C7.57764 4.59976 7.56113 4.48958 7.5435 4.41579C7.52398 4.33407 7.47537 4.2315 7.42353 4.15521C7.38782 4.10267 7.3342 4.03444 7.25045 4.00388C7.23201 3.99715 7.18287 3.99774 7.21013 4.01719C7.21892 4.02346 7.22957 4.02456 7.24209 4.0274C7.3008 4.04073 7.3573 4.05583 7.41271 4.07413C7.5614 4.12325 7.70528 4.1839 7.80656 4.26972C7.88548 4.33658 7.92984 4.40631 7.94178 4.4879C7.95377 4.56984 7.94721 4.65211 7.95997 4.73423C7.96855 4.78944 7.96984 4.84378 7.96636 4.89918C7.96459 4.92744 7.96869 4.95777 7.95555 4.98522C7.91583 5.06817 7.84724 5.15484 7.78247 5.23094C7.70991 5.31619 7.63201 5.40301 7.54547 5.48285C7.42435 5.59459 7.15606 5.96336 7.22685 5.83564C7.23496 5.821 7.24772 5.80755 7.25832 5.79355C7.36466 5.65308 7.46965 5.5122 7.57399 5.37113C7.69822 5.20315 7.82776 5.03552 7.93686 4.86328C7.95603 4.83302 8.00648 4.76692 7.99931 4.72897C7.99761 4.72003 7.9697 4.73229 7.95899 4.73826C7.82359 4.81374 7.70359 4.90584 7.59071 4.99388C7.26494 5.24795 6.96565 5.51879 6.68795 5.79448C6.66955 5.81275 6.6292 5.85256 6.60977 5.87804C6.60053 5.89016 6.64027 5.85902 6.65255 5.84802C6.76722 5.74524 6.86219 5.63404 6.94412 5.51967C6.98459 5.46319 7.02304 5.40685 7.03312 5.34482C7.03755 5.31759 7.01766 5.33682 7.00264 5.35318C6.8369 5.53361 6.69263 5.72394 6.55814 5.91425C6.55054 5.92501 6.48334 6.02283 6.47062 6.04732C6.46827 6.05185 6.46108 6.06156 6.46865 6.06156C6.47979 6.06156 6.4857 6.05248 6.49324 6.04732C6.51933 6.02945 6.54359 6.01055 6.56945 5.99254C6.81568 5.82107 7.09275 5.66668 7.33306 5.49213C7.37864 5.45902 7.4574 5.36901 7.33158 5.44354C7.15199 5.54993 6.99902 5.68152 6.85611 5.80717C6.71264 5.93332 6.58712 6.0642 6.49176 6.20732C6.48353 6.21967 6.43566 6.28747 6.47554 6.233C6.57531 6.09671 6.70737 5.9691 6.84382 5.84647C6.89903 5.79685 6.94407 5.75862 7.00264 5.71216C7.02404 5.69518 7.05801 5.66346 7.09114 5.65058C7.10124 5.64665 7.08144 5.66426 7.07541 5.67069C7.01486 5.73524 6.96091 5.80253 6.90626 5.86907C6.76538 6.04061 6.61226 6.21417 6.51881 6.39888C6.50948 6.41731 6.48862 6.43815 6.5011 6.45582C6.51739 6.47889 6.5713 6.43091 6.60239 6.41497C6.74882 6.33993 6.89871 6.26206 7.02427 6.17297C7.05342 6.15228 7.06209 6.14454 7.08377 6.12407C7.09022 6.11797 7.09312 6.1034 7.10393 6.10612C7.1091 6.10742 7.09954 6.11267 7.09606 6.1154C7.04098 6.15873 6.97567 6.19798 6.91757 6.2395C6.65244 6.42896 6.41988 6.63467 6.1756 6.83461C6.17501 6.8351 6.06503 6.92408 6.04383 6.94045C6.01772 6.96061 6.01889 6.95221 6.0276 6.92808C6.09333 6.74604 6.23501 6.57294 6.37621 6.41033C6.4064 6.37556 6.44076 6.33771 6.47308 6.30294C6.48045 6.29502 6.50198 6.27217 6.50012 6.28128C6.49857 6.28891 6.48538 6.30539 6.48144 6.30975C6.43292 6.36344 6.37049 6.41283 6.3118 6.46201C6.13368 6.61128 5.9404 6.74821 5.84174 6.92622C5.82893 6.94932 5.81989 6.97315 5.80683 6.99616C5.79573 7.01571 5.79375 6.95531 5.79208 6.93457C5.78939 6.90128 5.78846 6.87468 5.78765 6.84142C5.78734 6.82866 5.79501 6.79026 5.78323 6.77582C5.77658 6.76767 5.66251 6.84813 5.65637 6.85195C5.62455 6.87172 5.565 6.91508 5.51378 6.91508C5.48027 6.91508 5.43079 6.88744 5.40265 6.87794C5.33311 6.85447 5.28258 6.82219 5.22171 6.79129C5.14062 6.75013 5.04897 6.72302 4.96012 6.68978C4.89136 6.66406 4.83167 6.62925 4.77033 6.59725C4.69732 6.55916 4.62018 6.52431 4.54808 6.48553C4.45857 6.43738 4.38119 6.38043 4.28502 6.33729C4.21845 6.30743 4.1502 6.28276 4.09179 6.246C4.01952 6.20051 3.96164 6.14779 3.88429 6.10519C3.80489 6.06147 3.72423 6.02585 3.65909 5.97243C3.45612 5.80596 3.34124 5.61812 3.21263 5.42714C3.20575 5.41691 3.18728 5.40505 3.20821 5.41012C3.26633 5.42419 3.3217 5.4356 3.37784 5.45437C3.76115 5.58256 4.11723 5.74431 4.46597 5.90589C4.64725 5.98988 4.82434 6.07766 5.00831 6.15935C5.07015 6.18681 5.07679 6.1893 5.0265 6.15564C4.78355 5.99299 4.56064 5.81886 4.3278 5.65058C4.16962 5.53625 4.00841 5.41229 3.81152 5.32285C3.72175 5.28207 3.74379 5.31134 3.79284 5.3473C4.01951 5.51351 4.28155 5.66376 4.52841 5.81769C4.71628 5.93484 4.90509 6.05064 5.10272 6.16121C5.13281 6.17804 5.13548 6.17852 5.12337 6.15068C5.06297 6.01185 5.00365 5.87305 4.94734 5.73352C4.93606 5.70556 4.92467 5.67761 4.91341 5.64965C4.90536 5.62966 4.87212 5.57281 4.89178 5.5893C4.93662 5.62694 4.96876 5.71949 4.99159 5.75827C5.10299 5.94747 5.21153 6.14052 5.35742 6.32058C5.37046 6.33668 5.41087 6.37974 5.41347 6.36174C5.42273 6.29766 5.3408 6.21491 5.28858 6.16647C5.20021 6.08449 5.03672 5.96507 4.85982 5.96624C4.81883 5.96651 4.73513 6.02526 4.7782 6.04918C4.79226 6.05699 4.79401 6.07227 4.79541 6.08322C4.79805 6.10404 4.76929 6.09836 4.74279 6.09745C4.62464 6.09343 4.50406 6.08687 4.38877 6.0696C4.35455 6.06448 4.23777 6.02698 4.20045 6.03742C4.18986 6.04038 4.21815 6.05444 4.22061 6.05599C4.26749 6.08549 4.31957 6.10632 4.37697 6.12778C4.56623 6.19855 4.75879 6.26584 4.94832 6.33637C5.0588 6.37748 5.1774 6.42964 5.30235 6.45211C5.319 6.4551 5.34135 6.45747 5.35348 6.44778C5.40191 6.40909 5.44877 6.37041 5.48673 6.32708C5.67072 6.11713 5.77129 5.87299 5.8619 5.64191C5.94867 5.42062 6.00426 5.19439 6.05759 4.96912C6.06934 4.9195 6.07751 4.86761 6.09693 4.81872C6.10793 4.79103 6.07383 4.87414 6.05612 4.90042C5.97366 5.02276 5.85309 5.13335 5.74684 5.24765C5.61424 5.39029 5.48523 5.53467 5.36283 5.68091C5.34796 5.69866 5.33668 5.71167 5.32595 5.7298C5.32206 5.73637 5.30785 5.75299 5.31808 5.75023C5.34666 5.74252 5.3596 5.72109 5.38102 5.7069C5.56595 5.58438 5.74641 5.45983 5.92189 5.33182C6.24439 5.09656 6.56259 4.85759 6.87381 4.61633C6.93358 4.56999 6.83673 4.64829 6.83153 4.65408C6.66784 4.83607 6.53234 5.02958 6.39736 5.22041C6.25896 5.41607 6.12435 5.61529 6.03301 5.82203C6.00611 5.88291 5.96614 5.95942 5.96614 6.02411C5.96614 6.02785 5.97627 6.01995 5.97991 6.01699C6.02658 5.97911 6.07328 5.94118 6.11955 5.90311C6.25788 5.78925 6.38028 5.67084 6.49766 5.54814C6.54848 5.49503 6.60619 5.45412 6.60043 5.39062C6.59909 5.37589 6.59598 5.32121 6.55421 5.35039C6.52833 5.36847 6.49131 5.40633 6.47554 5.42405C6.38612 5.52442 6.3139 5.63088 6.24247 5.73661C6.11799 5.92088 6.00051 6.10715 5.89533 6.29614C5.88395 6.31658 5.8671 6.37719 5.85698 6.35648C5.84094 6.32368 5.79756 6.28935 5.77143 6.26024C5.61363 6.08445 5.46817 5.9047 5.32251 5.72485C5.2614 5.6494 5.09425 5.41955 5.13222 5.50079C5.15408 5.54757 5.16955 5.59565 5.18729 5.64315C5.22393 5.74123 5.25334 5.84161 5.30333 5.93746C5.32142 5.97214 5.33599 6.01143 5.39675 5.98171C5.61157 5.87665 5.79837 5.74158 5.99072 5.62149C6.20389 5.4884 6.41472 5.35436 6.61518 5.21361C6.72975 5.13316 6.83318 5.04843 6.94068 4.96448C6.94344 4.96233 6.96061 4.94819 6.97018 4.94468C6.97402 4.94327 6.97097 4.95047 6.9692 4.95303C6.90908 5.04006 6.85913 5.13023 6.80153 5.21794C6.62251 5.49054 6.41443 5.75686 6.24641 6.03216C6.2394 6.04364 6.2279 6.05483 6.22772 6.06713C6.22766 6.07097 6.24088 6.06806 6.24591 6.06589C6.36805 6.01334 6.48131 5.92447 6.57978 5.85792C6.7121 5.7685 6.85081 5.66905 6.9751 5.57569C7.14932 5.44481 7.33314 5.31133 7.47565 5.16533C7.51116 5.12894 7.55606 5.08891 7.53711 5.04309C7.51203 4.98244 7.37337 4.94377 7.2947 4.92208C6.99859 4.84046 6.65705 4.82553 6.34032 4.85679C6.05495 4.88494 5.81372 4.96342 5.61802 5.09724C5.48894 5.18551 5.35622 5.30681 5.37315 5.43333C5.38984 5.55804 5.58252 5.59515 5.75372 5.55898C6.03391 5.49977 5.97563 5.27598 5.85993 5.15109C5.71911 4.99908 5.49999 4.8678 5.20401 4.90847C5.00443 4.93589 4.77398 5.00851 4.71723 5.14305C4.60163 5.41704 4.76975 5.75545 5.05846 5.96438C5.36345 6.18508 5.87974 6.28967 6.31426 6.15997C6.54194 6.09201 6.72331 5.95677 6.76416 5.79974C6.76938 5.77967 6.79925 5.66847 6.7086 5.69947C6.59564 5.73811 6.51091 5.83911 6.45193 5.90496C6.32581 6.0458 6.20117 6.21365 6.20559 6.37938C6.20819 6.47675 6.39379 6.4187 6.47554 6.39393C6.7523 6.31008 6.99275 6.18306 7.21407 6.05103C7.32825 5.98292 7.65178 5.76785 7.55678 5.84678C7.54111 5.8598 7.5197 5.87088 7.50073 5.88144C7.40687 5.9337 7.31228 5.98536 7.21898 6.03804C7.14157 6.08174 7.01421 6.1543 6.93577 6.1971C6.84253 6.24798 6.74479 6.30675 6.63435 6.34348C6.59152 6.35773 6.52196 6.36474 6.52372 6.32213C6.52423 6.30984 6.52694 6.29535 6.53946 6.28747" stroke="#5382F6" stroke-width="3" stroke-linecap="round"/>
<path d="M4.83512 2.82588C4.684 2.74228 4.54319 2.64113 4.37514 2.59245C4.27433 2.56325 4.16435 2.5811 4.06104 2.56156C3.87283 2.52595 3.75991 2.50982 3.58561 2.60103C3.43885 2.67783 3.28759 2.7407 3.13935 2.81301C3.04152 2.86073 2.94113 2.88867 2.83984 2.92629C2.79086 2.94448 2.78035 2.98962 2.74287 3.02155C2.65844 3.09346 2.57714 3.19236 2.47168 3.22751" stroke="#5382F6" stroke-linecap="round"/>
<path d="M5.66932 8.72675C5.54027 8.58189 5.42174 8.42802 5.29172 8.28393C5.22971 8.2152 5.0354 8.02626 5.07546 8.10971C5.13364 8.23092 5.29374 8.34424 5.39213 8.42295C5.51051 8.51766 5.62228 8.59915 5.75343 8.67526C5.84557 8.72873 5.96823 8.80951 6.07267 8.73361C6.1581 8.67153 6.21533 8.5628 6.28722 8.48646C6.41072 8.35529 6.55845 8.28212 6.71202 8.19467C6.80699 8.1406 6.88702 8.06092 6.97548 7.99729C7.17608 7.853 7.37302 7.71463 7.55905 7.55103C7.66982 7.45363 7.78553 7.35967 7.89203 7.25753C8.01853 7.13621 8.09465 6.95237 8.16321 6.79583C8.32217 6.43292 8.43195 6.05136 8.59831 5.69134C8.68268 5.50876 8.77825 5.31131 8.91498 5.16013C9.00644 5.05901 9.10429 4.96368 9.19647 4.86319C9.24225 4.81329 9.26257 4.78145 9.2677 4.71473C9.27168 4.66301 9.26856 4.81081 9.26856 4.83402" stroke="#5382F6" stroke-linecap="round"/>
<path d="M9.48483 3.39743C9.5411 3.57875 9.64759 3.76457 9.66333 3.95525C9.67157 4.05498 9.58011 4.15794 9.54319 4.2436C9.49346 4.35896 9.47479 4.49677 9.43849 4.61777C9.37381 4.83335 9.38807 5.06571 9.33465 5.28458C9.27487 5.52948 9.11812 5.66645 8.94417 5.83124C8.91574 5.85818 8.88861 5.87688 8.89783 5.82438C8.92907 5.64656 8.98364 5.47197 9.02828 5.29745C9.1399 4.86105 9.22749 4.42277 9.29603 3.97756C9.33066 3.75262 9.36557 3.52631 9.387 3.29959C9.38827 3.28615 9.4004 3.21055 9.38871 3.1846C9.37132 3.14595 9.33784 3.1393 9.30375 3.12281C9.16357 3.05498 9.00941 2.98245 8.88153 2.89453C8.75092 2.80474 8.64748 2.79219 8.48247 2.78297C8.22812 2.76875 8.03671 2.72031 7.8148 2.58558C7.75026 2.5464 7.71031 2.49956 7.67749 2.53237" stroke="#5382F6" stroke-linecap="round"/>
</svg>
