<svg width="12" height="12" viewBox="0 0 12 12" fill="none" xmlns="http://www.w3.org/2000/svg">
<mask id="mask0_29_49" style="mask-type:alpha" maskUnits="userSpaceOnUse" x="0" y="0" width="12" height="12">
<rect width="12" height="12" fill="#D9D9D9"/>
</mask>
<g mask="url(#mask0_29_49)">
<path d="M6 10.5L5.275 9.85001C4.43333 9.09168 3.7375 8.43751 3.1875 7.88751C2.6375 7.33751 2.2 6.84376 1.875 6.40626C1.55 5.96876 1.32292 5.56668 1.19375 5.20001C1.06458 4.83335 1 4.45835 1 4.07501C1 3.29168 1.2625 2.63751 1.7875 2.11251C2.3125 1.58751 2.96667 1.32501 3.75 1.32501C4.18333 1.32501 4.59583 1.41668 4.9875 1.60001C5.37917 1.78335 5.71667 2.04168 6 2.37501C6.28333 2.04168 6.62083 1.78335 7.0125 1.60001C7.40417 1.41668 7.81667 1.32501 8.25 1.32501C9.03333 1.32501 9.6875 1.58751 10.2125 2.11251C10.7375 2.63751 11 3.29168 11 4.07501C11 4.45835 10.9354 4.83335 10.8063 5.20001C10.6771 5.56668 10.45 5.96876 10.125 6.40626C9.8 6.84376 9.3625 7.33751 8.8125 7.88751C8.2625 8.43751 7.56667 9.09168 6.725 9.85001L6 10.5ZM6 9.15001C6.8 8.43335 7.45833 7.81876 7.975 7.30626C8.49167 6.79376 8.9 6.34793 9.2 5.96876C9.5 5.5896 9.70833 5.2521 9.825 4.95626C9.94167 4.66043 10 4.36668 10 4.07501C10 3.57501 9.83333 3.15835 9.5 2.82501C9.16667 2.49168 8.75 2.32501 8.25 2.32501C7.85833 2.32501 7.49583 2.43543 7.1625 2.65626C6.82917 2.8771 6.6 3.15835 6.475 3.50001H5.525C5.4 3.15835 5.17083 2.8771 4.8375 2.65626C4.50417 2.43543 4.14167 2.32501 3.75 2.32501C3.25 2.32501 2.83333 2.49168 2.5 2.82501C2.16667 3.15835 2 3.57501 2 4.07501C2 4.36668 2.05833 4.66043 2.175 4.95626C2.29167 5.2521 2.5 5.5896 2.8 5.96876C3.1 6.34793 3.50833 6.79376 4.025 7.30626C4.54167 7.81876 5.2 8.43335 6 9.15001Z" fill="#2A344D"/>
</g>
</svg>
