<svg width="161" height="96" viewBox="0 0 161 96" fill="none" xmlns="http://www.w3.org/2000/svg">
<path d="M81.8176 1.14408C78.9601 2.40257 77.0741 5.14835 77.0741 7.95134C77.0741 9.55305 78.2171 11.212 84.7894 19.0489C89.0185 24.0828 92.5046 28.3731 92.5046 28.5447C92.5046 29.1168 51.4138 77.9688 49.7564 79.3989C48.8992 80.1426 46.3274 81.6871 43.9843 82.8312C40.1553 84.6617 39.3552 84.8333 34.8403 84.8333C24.3819 84.8333 16.1523 79.2273 12.3232 69.5599C10.6659 65.384 10.723 57.4899 12.4375 53.1996C14.9521 46.7927 19.8099 41.9304 26.2107 39.4134C29.754 37.9834 38.3836 37.6401 41.2411 38.7842L42.7841 39.4706L38.2122 45.0194C34.326 49.7101 33.6402 50.8542 33.6402 52.6275C33.6402 57.261 38.9551 59.7208 42.4412 56.689C43.8129 55.4877 75.4168 17.8476 76.3312 16.3603C77.5313 14.301 77.1884 12.07 75.3596 10.2395L73.7023 8.52338L56.0429 8.69498L38.3836 8.8666L36.2691 10.5255C34.0402 12.1844 31.9828 15.9027 31.9257 18.1336V19.4493L45.6417 19.5637L59.4148 19.7353L54.7856 25.2269L50.1565 30.7757L47.8134 29.6316C40.2696 25.9706 29.4682 26.085 20.7814 29.8604C0.207409 38.8414 -6.42199 64.1255 6.95111 82.2019C16.6095 95.1872 34.2117 99.5919 49.0135 92.6702C54.6142 90.0388 58.1003 87.1215 63.6439 80.4286L68.6731 74.365H81.589H94.5049L96.448 78.1977C100.677 86.3206 110.05 93.2423 119.651 95.2444C131.138 97.647 142.397 94.2719 150.798 85.8058C155.77 80.8862 158.341 76.4243 159.942 70.0175C162.056 61.7802 160.97 52.5703 156.97 45.0194C154.169 39.6995 147.483 33.2354 142.054 30.6613C132.052 25.8561 120.622 25.7989 111.421 30.5469C109.65 31.5193 109.592 31.5193 108.049 29.6888C105.078 26.1994 104.906 26.3138 112.907 26.3138C119.422 26.3138 120.565 26.1422 123.08 24.9409C126.566 23.3392 128.052 21.7375 129.709 18.0764C131.881 13.1569 130.624 7.83693 126.395 3.71825C122.851 0.286018 120.851 0 101.42 0C85.7038 0 83.9893 0.11441 81.8176 1.14408ZM119.251 12.1844C119.879 12.8709 119.879 13.2713 119.422 14.2438C118.794 15.3878 118.394 15.445 107.364 15.445H95.9908L94.562 13.5573C93.7048 12.4704 93.0761 11.498 93.0761 11.3836C93.0761 11.2692 98.7911 11.212 105.763 11.2692C115.879 11.3836 118.565 11.5552 119.251 12.1844ZM101.077 38.4982C101.649 39.2418 105.763 44.1042 110.221 49.3669C119.594 60.4645 119.651 60.4645 124.109 56.3458C127.595 53.1996 127.538 52.9708 121.537 45.7631C116.336 39.5279 116.393 39.4134 122.737 38.2694C130.109 36.9537 137.653 39.4134 143.025 44.7906C146.797 48.5661 148.855 52.5131 149.769 57.7187C151.941 70.4179 143.025 82.7168 130.052 84.7189C120.222 86.2634 110.05 80.829 105.592 71.7336C104.62 69.7887 103.706 67.1573 103.535 65.8416L103.192 63.4963H90.733C83.8178 63.4963 78.2171 63.3819 78.2171 63.2102C78.2171 63.0386 81.1318 59.492 84.6751 55.2589C88.1612 51.083 93.019 45.3054 95.3621 42.4453C97.7053 39.5851 99.7627 37.2397 99.877 37.2397C99.9913 37.1825 100.506 37.7545 101.077 38.4982Z" fill="#2A344D"/>
</svg>
